<svg width="32" height="33" viewBox="0 0 32 33" fill="none" xmlns="http://www.w3.org/2000/svg">
<g clip-path="url(#clip0_2_7444)">
<path d="M15.3352 27.3633L14.4014 32.4998H17.5997L16.6662 27.3633H15.3352Z" fill="#0070D2"/>
<path d="M8.8743 10.8126C9.0939 10.4244 9.42385 10.1103 9.82207 9.90965H9.82737C9.92463 9.86004 10.0255 9.81796 10.1292 9.78341L10.1576 9.77337C10.2543 9.74272 10.353 9.71847 10.4527 9.70064C10.4694 9.6973 10.4848 9.69284 10.5012 9.69061C10.6146 9.67221 10.7289 9.66218 10.8437 9.66079H10.9783C12.5801 9.64686 14.1343 9.11514 15.409 8.14563L18.512 5.79027C18.706 5.64313 18.9718 5.63532 19.1741 5.77076C19.7744 6.18292 20.3521 6.62769 20.9039 7.10283C21.1254 7.29344 21.3269 7.4796 21.5186 7.6638C21.571 7.71396 21.622 7.76385 21.6722 7.81345C21.8243 7.96254 21.9656 8.10912 22.0963 8.25292C22.1281 8.28831 22.1635 8.32482 22.195 8.36021C22.348 8.53132 22.4854 8.70242 22.6099 8.86573C22.64 8.90697 22.6671 8.94627 22.6955 8.98612C22.7891 9.11626 22.873 9.24417 22.9482 9.36929C22.9644 9.39605 22.9864 9.42614 23.002 9.45011C24.1496 8.14145 24.3177 6.24033 23.4175 4.75025C22.5174 3.26045 20.7565 2.52503 19.0638 2.93189C18.8562 2.98038 18.6385 2.90876 18.5 2.74657C16.2726 0.0882884 12.312 -0.260892 9.65403 1.96656C6.99603 4.19401 6.64685 8.15455 8.8743 10.8126Z" fill="#0070D2"/>
<path d="M18.2837 22.1646C18.2335 22.1861 18.1797 22.2 18.1296 22.2215C17.9066 22.3148 17.6798 22.3979 17.4493 22.4703C17.3624 22.4979 17.2779 22.5275 17.1896 22.5509C16.8855 22.6384 16.5768 22.7091 16.2649 22.7632L16.0938 22.7911C16.0317 22.8019 15.9684 22.8019 15.9066 22.7911L15.7355 22.7632C15.4236 22.708 15.1151 22.6359 14.8114 22.5475C14.7247 22.523 14.64 22.4948 14.5522 22.4675C14.324 22.394 14.0957 22.3118 13.8747 22.2192C13.8229 22.1981 13.7686 22.1844 13.7173 22.1621V24.3213L15.1447 26.2224H16.8515L18.2837 24.3196V22.1646Z" fill="#0070D2"/>
<path d="M8.58116 14.3163V12.1605C8.5544 12.1354 8.52932 12.1086 8.50285 12.083C8.14782 12.2884 7.95302 12.6886 8.01043 13.0949C8.02018 13.7676 8.22752 14.4225 8.60679 14.9782C8.58979 14.7594 8.58116 14.5387 8.58116 14.3163Z" fill="#0070D2"/>
<path d="M13.2416 32.5L14.2535 26.9354L12.6907 24.8523C12.6168 24.7533 12.5767 24.6332 12.5767 24.5098H10.8645C6.35526 24.5028 2.61627 28.0002 2.32227 32.5H13.2416Z" fill="#0070D2"/>
<path d="M13.4324 20.7393C14.2035 21.1838 15.0476 21.4873 15.9254 21.6358L16.0007 21.6478L16.0781 21.6353C16.9551 21.4926 17.7984 21.19 18.5662 20.7427C20.5567 19.5895 21.9016 17.5803 22.209 15.3001C22.2567 14.9744 22.2801 14.6455 22.2787 14.3164V10.8121C22.2778 10.7293 22.2667 10.6471 22.2455 10.5671C21.8907 9.69627 21.3178 8.93102 20.5818 8.34525C20.448 8.22124 20.307 8.09555 20.1596 7.9682C19.6522 7.53263 19.1723 7.17258 18.8674 6.95215L16.128 9.02967C14.6491 10.1611 12.843 10.7817 10.9812 10.799H10.8527C10.7437 10.8012 10.6356 10.819 10.5319 10.8519C10.5155 10.8572 10.4993 10.8617 10.4834 10.8675C10.382 10.9024 10.2859 10.9514 10.1981 11.013L10.1911 11.0186C10.105 11.0824 10.0284 11.1576 9.96288 11.2424C9.95675 11.2504 9.94923 11.2577 9.94282 11.2663C9.88067 11.3524 9.83107 11.4469 9.79568 11.5472C9.78871 11.5659 9.78314 11.5854 9.77729 11.6044C9.7444 11.7041 9.72573 11.8083 9.72267 11.9137V11.9318V14.3164C9.72183 14.8205 9.77478 15.3236 9.88067 15.8168C10.3093 17.8885 11.6015 19.679 13.4324 20.7388V20.7393Z" fill="#0070D2"/>
<path d="M29.6795 32.4999C29.3738 28.006 25.6417 24.5153 21.1375 24.5098H19.4253C19.4253 24.6332 19.3852 24.7533 19.3111 24.8523L19.225 24.9662L17.7485 26.9354L18.7604 32.4999H29.6795Z" fill="#0070D2"/>
<path d="M23.4204 11.4707V14.3684C23.7835 13.8211 23.9817 13.1809 23.9911 12.5244C23.9911 11.9606 23.8114 11.6192 23.4204 11.4707Z" fill="#0070D2"/>
</g>
<defs>
<clipPath id="clip0_2_7444">
<rect width="32" height="32" fill="white" transform="translate(0 0.5)"/>
</clipPath>
</defs>
</svg>
