<svg width="25" height="24" viewBox="0 0 25 24" fill="none" xmlns="http://www.w3.org/2000/svg">
<g clip-path="url(#clip0_2_7403)">
<path d="M12.0017 20.1475L11.3013 23.9999H13.7L12.9999 20.1475H12.0017Z" fill="white"/>
<path d="M7.1556 7.73442C7.3203 7.44327 7.56776 7.20772 7.86643 7.05723H7.87041C7.94335 7.02003 8.01901 6.98847 8.09676 6.96255L8.11808 6.95503C8.1906 6.93204 8.26459 6.91386 8.33942 6.90048C8.35196 6.89797 8.36345 6.89463 8.37578 6.89296C8.46085 6.87916 8.54654 6.87164 8.63265 6.87059H8.7336C9.93497 6.86014 11.1006 6.46136 12.0566 5.73422L14.3839 3.9677C14.5294 3.85734 14.7287 3.85149 14.8805 3.95307C15.3307 4.26219 15.764 4.59576 16.1778 4.95212C16.3439 5.09508 16.4951 5.2347 16.6389 5.37285C16.6782 5.41047 16.7164 5.44788 16.754 5.48509C16.8681 5.59691 16.9741 5.70684 17.0721 5.81469C17.096 5.84123 17.1225 5.86861 17.1461 5.89516C17.2609 6.02349 17.3639 6.15182 17.4573 6.2743C17.4799 6.30523 17.5002 6.3347 17.5215 6.36459C17.5917 6.46219 17.6546 6.55813 17.7111 6.65197C17.7232 6.67204 17.7397 6.69461 17.7514 6.71258C18.6121 5.73109 18.7381 4.30524 18.063 3.18769C17.3879 2.07034 16.0672 1.51877 14.7977 1.82392C14.642 1.86029 14.4788 1.80657 14.3749 1.68493C12.7043 -0.308784 9.73391 -0.570669 7.7404 1.09992C5.7469 2.77051 5.48501 5.74091 7.1556 7.73442Z" fill="white"/>
<path d="M14.2129 16.248C14.1752 16.2641 14.1349 16.2745 14.0973 16.2906C13.9301 16.3606 13.76 16.4229 13.5871 16.4773C13.5219 16.4979 13.4586 16.5201 13.3923 16.5377C13.1643 16.6033 12.9327 16.6564 12.6988 16.6969L12.5705 16.7178C12.5239 16.726 12.4764 16.726 12.43 16.7178L12.3017 16.6969C12.0678 16.6555 11.8365 16.6014 11.6086 16.5351C11.5436 16.5168 11.4801 16.4956 11.4143 16.4752C11.2431 16.42 11.0719 16.3583 10.9062 16.2889C10.8673 16.2731 10.8265 16.2628 10.7881 16.2461V17.8655L11.8586 19.2913H13.1388L14.2129 17.8642V16.248Z" fill="white"/>
<path d="M6.93599 10.3625V8.7456C6.91592 8.72679 6.89711 8.70673 6.87726 8.6875C6.61098 8.84154 6.46489 9.14167 6.50794 9.4464C6.51526 9.95094 6.67076 10.4421 6.95522 10.8589C6.94247 10.6948 6.93599 10.5293 6.93599 10.3625Z" fill="white"/>
<path d="M10.4312 24.0005L11.1901 19.827L10.018 18.2647C9.96261 18.1905 9.93251 18.1004 9.93251 18.0078H8.64838C5.26644 18.0026 2.4622 20.6256 2.2417 24.0005H10.4312Z" fill="white"/>
<path d="M10.5743 15.1793C11.1526 15.5126 11.7857 15.7402 12.4441 15.8516L12.5005 15.8606L12.5586 15.8512C13.2163 15.7442 13.8488 15.5172 14.4246 15.1818C15.9175 14.3169 16.9262 12.81 17.1567 11.0999C17.1925 10.8555 17.21 10.6089 17.209 10.3621V7.73382C17.2084 7.67174 17.2 7.61009 17.1841 7.5501C16.9181 6.89695 16.4883 6.32302 15.9364 5.88369C15.836 5.79068 15.7303 5.69642 15.6197 5.60091C15.2391 5.27423 14.8792 5.00419 14.6505 4.83887L12.596 6.39701C11.4868 7.24558 10.1322 7.71104 8.73587 7.72399H8.63952C8.5578 7.72567 8.47671 7.73904 8.39895 7.76371C8.38662 7.76768 8.3745 7.77102 8.36259 7.77541C8.28651 7.80154 8.2144 7.83832 8.14856 7.88451L8.14334 7.88869C8.07876 7.93655 8.02128 7.99299 7.97216 8.05652C7.96757 8.06258 7.96192 8.06802 7.95711 8.0745C7.91051 8.13908 7.8733 8.20993 7.84676 8.28518C7.84153 8.29918 7.83735 8.31381 7.83296 8.32802C7.8083 8.40285 7.7943 8.48102 7.792 8.56002V8.57361V10.3621C7.79137 10.7402 7.83108 11.1174 7.91051 11.4874C8.23196 13.0411 9.20112 14.384 10.5743 15.1788V15.1793Z" fill="white"/>
<path d="M22.7597 24.0004C22.5304 20.63 19.7314 18.012 16.3533 18.0078H15.0691C15.0691 18.1004 15.039 18.1905 14.9834 18.2647L14.9188 18.3502L13.8115 19.827L14.5704 24.0004H22.7597Z" fill="white"/>
<path d="M18.0654 8.22852V10.4018C18.3378 9.99128 18.4864 9.51119 18.4935 9.01877C18.4935 8.59595 18.3587 8.33992 18.0654 8.22852Z" fill="white"/>
</g>
<defs>
<clipPath id="clip0_2_7403">
<rect width="24" height="24" fill="white" transform="translate(0.5)"/>
</clipPath>
</defs>
</svg>
