<svg xmlns="http://www.w3.org/2000/svg" width="16" height="16" viewBox="0 0 16 16">
  <g id="pelsu-icon" transform="translate(0.004 0.08)">
    <g id="Layer_1" data-name="Layer 1" transform="translate(-0.004 -0.08)">
      <path id="Path_644" data-name="Path 644" d="M16,15.457a.782.782,0,0,1-.769.453,1.843,1.843,0,0,1-1.522-.582c-.023-.023-.047-.044-.069-.065a1.863,1.863,0,0,1-2.826.016,1.859,1.859,0,0,1-2.817-.01,1.834,1.834,0,0,1-2.8-.006,1.911,1.911,0,0,1-1.407.654,1.853,1.853,0,0,1-1.4-.652l-.132.123a1.793,1.793,0,0,1-1.89.425.536.536,0,0,1-.344-.652.49.49,0,0,1,.59-.378,1.68,1.68,0,0,0,.552.037.94.94,0,0,0,.751-.685c.087-.247.221-.413.47-.412s.379.171.467.417a.965.965,0,0,0,1.24.65c-.012-.042-.022-.086-.037-.126a4.069,4.069,0,0,1-.266-1.477c0-.348,0-.7,0-1.044a.494.494,0,0,1,.482-.544H4.8c.118-.621.236-1.234.352-1.848q.462-2.441.918-4.882a.836.836,0,0,0,0-.311c-.127-.607-.263-1.21-.395-1.815a.517.517,0,0,1,.48-.7h.439V1.51A1.507,1.507,0,0,1,8-.08,1.508,1.508,0,0,1,9.4,1.513c0,.17,0,.34,0,.534h.425c.376,0,.578.3.486.718-.13.6-.265,1.2-.39,1.8a.829.829,0,0,0,0,.311q.611,3.253,1.228,6.5c.013.069.027.138.042.223H11.7c.323,0,.513.213.508.584-.006.512.007,1.028-.042,1.536a8.442,8.442,0,0,1-.235,1.073.945.945,0,0,0,1.215-.656c.08-.225.2-.388.422-.412a.43.43,0,0,1,.479.336,1.052,1.052,0,0,0,1.319.736c.264-.1.425.006.622.341Zm-4.7-2.785H4.719a4.126,4.126,0,0,0,.1,1.229c.369-.3.67-.209.839.25a.987.987,0,0,0,1.115.682,1.044,1.044,0,0,0,.785-.745c.138-.386.528-.491.771-.209a.831.831,0,0,1,.135.254.987.987,0,0,0,1.134.7,1.008,1.008,0,0,0,.756-.709c.1-.293.286-.436.525-.389a1.7,1.7,0,0,1,.348.165C11.248,13.491,11.273,13.09,11.3,12.672ZM8.019,8.614c-.675.766-1.3,1.5-1.953,2.2a1.322,1.322,0,0,0-.286.771h4.434a1.264,1.264,0,0,0-.323-.816C9.3,10.139,8.737,9.478,8.163,8.826a2.174,2.174,0,0,1-.144-.212Zm1-3.373H6.976c-.033.165-.069.319-.091.473a.255.255,0,0,0,.028.175c.355.413.716.819,1.083,1.235.376-.423.74-.832,1.1-1.246a.182.182,0,0,0,.025-.128c-.03-.169-.068-.339-.1-.509ZM6.73,3.113c.074.34.14.662.217.978a.143.143,0,0,0,.114.076q.937.007,1.874,0c.038,0,.1-.03.11-.06.078-.326.147-.655.221-.993ZM8.469,2.039V1.627a1.536,1.536,0,0,0,0-.158A.512.512,0,0,0,8.006.985a.5.5,0,0,0-.472.488c-.014.185,0,.372,0,.567ZM7.284,7.878l-.668-.756c-.122.645-.246,1.3-.366,1.928ZM9.747,9.06c-.122-.644-.246-1.3-.364-1.91L8.719,7.9Z" transform="translate(0.004 0.08)" fill="#fff"/>
    </g>
  </g>
</svg>
