<svg xmlns="http://www.w3.org/2000/svg" width="16" height="16" viewBox="0 0 16 16">
  <g id="pemeliharaan-icon" transform="translate(-0.001 -0.004)">
    <g id="Layer_1" data-name="Layer 1" transform="translate(0.001 0.004)">
      <path id="Path_678" data-name="Path 678" d="M28.728,274.414A7.084,7.084,0,0,1,25.414,272h1.364v-.926H24.05v2.792h.964v-.874c.058.061.1.1.135.142a7.955,7.955,0,0,0,4.517,2.5c.27.049.543.084.813.123h1.128c.231-.032.462-.058.691-.1.251-.042.5-.1.752-.146l-.239-.919A7,7,0,0,1,28.728,274.414Z" transform="translate(-23.046 -259.75)" fill="#fff"/>
      <path id="Path_679" data-name="Path 679" d="M275.72,144.232c-.042-.251-.1-.5-.147-.752l-.919.239a7.066,7.066,0,0,1-2.6,7.39v-1.361h-.919v2.7h2.789v-.965h-.879c.092-.084.16-.146.227-.209a7.9,7.9,0,0,0,2.415-4.412c.051-.281.084-.564.125-.846v-1.1C275.785,144.692,275.759,144.462,275.72,144.232Z" transform="translate(-259.817 -137.488)" fill="#fff"/>
      <path id="Path_680" data-name="Path 680" d="M94.8,95.161a.209.209,0,0,1-.112-.179.52.52,0,0,1,.366-.63,7.06,7.06,0,0,0,.72-.412L94.364,91.5c-.338.2-.661.384-.987.566a.219.219,0,0,1-.167.025c-.4-.186-.394-.188-.394-.618V90.62H90c0,.315-.016.613.005.908a.445.445,0,0,1-.279.509.324.324,0,0,1-.361-.008c-.3-.181-.6-.35-.911-.529l-1.409,2.44c.257.149.5.311.752.429a.489.489,0,0,1,.334.573.266.266,0,0,1-.145.239c-.313.174-.621.357-.942.543l1.409,2.44c.256-.148.515-.272.745-.437a.491.491,0,0,1,.674-.01.255.255,0,0,1,.129.231c-.008.363,0,.726,0,1.094h2.8a.2.2,0,0,0,.011-.038,7.975,7.975,0,0,0,0-.812.488.488,0,0,1,.329-.588.25.25,0,0,1,.265,0c.225.14.459.268.688.4.088.051.177.1.273.152l1.406-2.438C95.437,95.53,95.119,95.343,94.8,95.161ZM91.423,96.24a1.407,1.407,0,1,1-.009-2.814,1.407,1.407,0,0,1,.009,2.814Z" transform="translate(-83.415 -86.836)" fill="#fff"/>
      <path id="Path_681" data-name="Path 681" d="M147.7,1.335A7.062,7.062,0,0,1,151,3.754H149.62v.919h2.73V1.885h-.964v.858A8.008,8.008,0,0,0,143.38.232l.243.926A6.965,6.965,0,0,1,147.7,1.335Z" transform="translate(-137.392 -0.004)" fill="#fff"/>
      <path id="Path_682" data-name="Path 682" d="M1.333,29.391a7.075,7.075,0,0,1,2.422-3.313v1.4h.919V24.74H1.88v.968h.864A7.994,7.994,0,0,0,.229,33.713l.926-.24A7,7,0,0,1,1.333,29.391Z" transform="translate(-0.001 -23.707)" fill="#fff"/>
    </g>
  </g>
</svg>
