<svg xmlns="http://www.w3.org/2000/svg" width="16" height="16" viewBox="0 0 16 16">
  <g id="penambahan-icon" transform="translate(0 0.013)">
    <g id="Layer_1" data-name="Layer 1" transform="translate(0 -0.013)">
      <path id="Path_674" data-name="Path 674" d="M10,14.524q-3.875.007-7.75,0a.728.728,0,0,1-.789-.781V2.215a.724.724,0,0,1,.767-.77h7.46a.23.23,0,0,1,.209.1q.829,1.11,1.666,2.217a.384.384,0,0,1,.076.251c0,1.022,0,2.044-.005,3.066,0,.156.046.188.189.182.369-.011.738-.01,1.107,0,.13,0,.16-.035.159-.161q-.008-1.7,0-3.406a.921.921,0,0,0-.2-.582Q11.848,1.738,10.816.352a.843.843,0,0,0-.725-.364q-3.927,0-7.852,0A2.3,2.3,0,0,0,1.5.1,2.188,2.188,0,0,0,0,2.23V7.987q0,2.89,0,5.774a2.184,2.184,0,0,0,2.221,2.222c.494,0,.988,0,1.482,0q3.151,0,6.3,0c.143,0,.18-.035.176-.176-.01-.369-.013-.739,0-1.107C10.189,14.549,10.141,14.524,10,14.524Z" transform="translate(0 0.013)" fill="#fff"/>
      <path id="Path_675" data-name="Path 675" d="M198.777,195.72q-.017-.562,0-1.124c0-.141-.046-.166-.172-.165-.857.005-1.715,0-2.572.006-.145,0-.177-.041-.176-.18.006-.865,0-1.726.006-2.589,0-.12-.033-.153-.152-.15q-.579.011-1.158,0c-.11,0-.145.026-.143.141.007.437,0,.874,0,1.311s-.005.865,0,1.294c0,.13-.027.173-.167.172-.865-.007-1.726,0-2.589-.006-.122,0-.168.021-.164.156q.015.57,0,1.141c0,.134.041.157.163.157.863-.005,1.726,0,2.589-.006.137,0,.168.041.167.171-.005.863,0,1.726-.006,2.589,0,.129.033.163.161.159q.561-.014,1.124,0c.132,0,.171-.031.17-.167-.006-.857,0-1.715-.006-2.572,0-.137.031-.182.175-.182.857.007,1.715,0,2.572.006C198.731,195.885,198.781,195.861,198.777,195.72Z" transform="translate(-182.777 -182.797)" fill="#fff"/>
      <path id="Path_676" data-name="Path 676" d="M85.63,81.129c-.011-.374-.01-.749,0-1.123,0-.137-.036-.167-.168-.166-.913.006-1.826,0-2.739,0s-1.838,0-2.756,0c-.12,0-.165.017-.161.153.011.38.009.76,0,1.138,0,.128.024.171.163.17q2.739-.007,5.479,0C85.585,81.3,85.635,81.275,85.63,81.129Z" transform="translate(-76.172 -76.204)" fill="#fff"/>
      <path id="Path_677" data-name="Path 677" d="M84.038,143.619c-.669.008-1.339,0-2.008,0-.686,0-1.373,0-2.059,0-.1,0-.137.024-.134.131.007.4.006.806,0,1.208,0,.1.025.122.122.122q2.059,0,4.119,0c.114,0,.126-.041.125-.137-.005-.386-.007-.772,0-1.157C84.206,143.658,84.177,143.617,84.038,143.619Z" transform="translate(-76.202 -137.079)" fill="#fff"/>
    </g>
  </g>
</svg>
