<svg xmlns="http://www.w3.org/2000/svg" width="16.002" height="16" viewBox="0 0 16.002 16">
  <g id="pengawasan-icon" transform="translate(-141 -394)">
    <path id="Path_668" data-name="Path 668" d="M15.79,94.58a14.132,14.132,0,0,0-4.01-2.882,9,9,0,0,0-3.522-.922,8.5,8.5,0,0,0-3.8.811A13.871,13.871,0,0,0,.488,94.3c-.178.17-.326.371-.488.558v.25a1.914,1.914,0,0,0,.169.237A13.99,13.99,0,0,0,4.307,98.31a9.111,9.111,0,0,0,3.328.876A7.62,7.62,0,0,0,10.4,98.8a13.327,13.327,0,0,0,5.389-3.418A.489.489,0,0,0,15.79,94.58Zm-14.639.409a12.213,12.213,0,0,1,3.327-2.352A4.272,4.272,0,0,0,4.5,97.353,12.784,12.784,0,0,1,1.152,94.989Zm6.855,3.276A3.28,3.28,0,1,1,11.28,94.98a3.28,3.28,0,0,1-3.273,3.284Zm3.485-.894a4.285,4.285,0,0,0,0-4.772,13.5,13.5,0,0,1,3.376,2.386A13.538,13.538,0,0,1,11.492,97.371Z" transform="translate(141 307.018)" fill="#fff"/>
    <path id="Path_669" data-name="Path 669" d="M.023,2.481A.476.476,0,0,0,.565,2.8a.487.487,0,0,0,.372-.538V.932H2.284a.476.476,0,0,0,.528-.47.476.476,0,0,0-.53-.467c-.551,0-1.1.011-1.653-.005A.594.594,0,0,0,0,.338V2.462C.008,2.469.019,2.473.023,2.481Z" transform="translate(141 394.011)" fill="#fff"/>
    <path id="Path_670" data-name="Path 670" d="M2.3,317.85H.947v-1.374a.473.473,0,0,0-.372-.49.476.476,0,0,0-.531.286.449.449,0,0,1-.033.048v2.468H2.478a.176.176,0,0,1,.033-.029.469.469,0,0,0-.206-.909Z" transform="translate(140.99 91.213)" fill="#fff"/>
    <path id="Path_671" data-name="Path 671" d="M318.766,316.493a.468.468,0,1,0-.935,0c0,.38,0,.759,0,1.138v.255h-1.373a.469.469,0,0,0-.205.9.408.408,0,0,1,.048.033h2.125a.53.53,0,0,0,.344-.488C318.765,317.721,318.769,317.107,318.766,316.493Z" transform="translate(-161.769 91.178)" fill="#fff"/>
    <path id="Path_672" data-name="Path 672" d="M316.435,1.027c.459.005.915,0,1.393,0v.19c0,.406,0,.812,0,1.218a.467.467,0,1,0,.933.013q.01-.952,0-1.9a.452.452,0,0,0-.448-.449q-.953-.008-1.905,0a.438.438,0,0,0-.42.3A.464.464,0,0,0,316.435,1.027Z" transform="translate(-161.767 393.914)" fill="#fff"/>
    <path id="Path_673" data-name="Path 673" d="M145.034,143.089a2.031,2.031,0,1,0,2.016,2.037A2.031,2.031,0,0,0,145.034,143.089Zm-.008,3.123a1.093,1.093,0,1,1,1.085-1.1,1.093,1.093,0,0,1-1.085,1.1Z" transform="translate(3.979 256.883)" fill="#fff"/>
  </g>
</svg>
