<svg xmlns="http://www.w3.org/2000/svg" width="14" height="16" viewBox="0 0 14 16">
  <g id="penghapusan-icon" transform="translate(-0.021)">
    <g id="Layer_1" data-name="Layer 1" transform="translate(0.021)">
      <path id="Path_686" data-name="Path 686" d="M13.93,2.779a1.394,1.394,0,0,0-1.314-.9c-.716,0-1.431,0-2.147,0h-.18V1.413A1.416,1.416,0,0,0,9.942.485,1.549,1.549,0,0,0,9.075,0H4.967A.1.1,0,0,1,4.94.015,1.427,1.427,0,0,0,3.752,1.551c.007.106,0,.213,0,.325H3.558c-.71,0-1.421,0-2.132,0A1.409,1.409,0,0,0,.878,4.581a.193.193,0,0,1,.1.126q.146,1.648.281,3.3c.078.944.15,1.888.228,2.831.091,1.115.181,2.231.278,3.344a4.07,4.07,0,0,0,.117.831A1.371,1.371,0,0,0,3.256,16h7.609a1.363,1.363,0,0,0,1.261-.9,3.306,3.306,0,0,0,.13-.763c.078-.818.141-1.638.209-2.457.057-.69.11-1.379.167-2.069.067-.814.138-1.628.206-2.442.071-.85.146-1.7.207-2.551a.268.268,0,0,1,.2-.28.892.892,0,0,0,.261-.166A1.4,1.4,0,0,0,13.93,2.779ZM4.689,1.4A.48.48,0,0,1,5.224.937H7.869c.322,0,.643,0,.965,0a.484.484,0,0,1,.522.527v.4H4.687C4.687,1.7,4.68,1.552,4.689,1.4Zm7.374,3.94c-.078.939-.16,1.878-.238,2.815-.068.819-.13,1.639-.2,2.458q-.117,1.409-.238,2.815c-.033.394-.064.788-.1,1.182a.465.465,0,0,1-.468.449H3.307a.483.483,0,0,1-.529-.319,1.254,1.254,0,0,1-.044-.276c-.067-.814-.131-1.628-.2-2.442S2.4,10.387,2.328,9.568,2.2,7.94,2.131,7.126q-.095-1.167-.19-2.334c0-.03,0-.06,0-.1H12.108C12.093,4.912,12.081,5.127,12.062,5.343Zm.71-1.625a1,1,0,0,1-.276.032q-2.737,0-5.475,0t-5.475,0a1.015,1.015,0,0,1-.276-.032.458.458,0,0,1,0-.873.938.938,0,0,1,.26-.032q5.491,0,10.981,0a.933.933,0,0,1,.26.032.458.458,0,0,1,0,.872Z" transform="translate(-0.021)" fill="#fff"/>
      <path id="Path_687" data-name="Path 687" d="M96.018,147.061q.1,1.418.2,2.835c.045.649.089,1.3.143,1.947a.5.5,0,0,0,.538.425c.338,0,.534-.221.522-.613-.079-1.1-.162-2.221-.243-3.348q-.145-2.041-.288-4.082a.5.5,0,0,0-.559-.456.487.487,0,0,0-.5.486c0,.192.022.384.035.576Q95.94,145.947,96.018,147.061Z" transform="translate(-92.154 -138.144)" fill="#fff"/>
      <path id="Path_688" data-name="Path 688" d="M228.132,152.267a.5.5,0,0,0,.557-.424c.063-.836.121-1.672.178-2.508q.078-1.1.155-2.2c.066-.93.134-1.859.2-2.8V144.3a.494.494,0,0,0-.505-.533.505.505,0,0,0-.563.5q-.041.545-.079,1.09-.1,1.418-.2,2.836c-.054.758-.11,1.516-.162,2.274-.031.447-.067.893-.083,1.34A.481.481,0,0,0,228.132,152.267Z" transform="translate(-218.899 -138.142)" fill="#fff"/>
      <path id="Path_689" data-name="Path 689" d="M167.67,151.686a.533.533,0,0,0,1.065,0v-7.463a.587.587,0,0,0-.017-.17.539.539,0,0,0-.6-.343.489.489,0,0,0-.45.486v3.747Q167.671,149.813,167.67,151.686Z" transform="translate(-161.203 -138.077)" fill="#fff"/>
    </g>
  </g>
</svg>
