<svg xmlns="http://www.w3.org/2000/svg" width="16.017" height="16" viewBox="0 0 16.017 16">
  <g id="perubahan-icon" transform="translate(0.002 -0.001)">
    <g id="Layer_1" data-name="Layer 1" transform="translate(-0.002 0.001)">
      <path id="Path_683" data-name="Path 683" d="M394.591,1.322A1.652,1.652,0,0,0,392.049.294a12.134,12.134,0,0,0-1.189,1.1l2.369,2.368c.308-.306.636-.611.938-.94a2.54,2.54,0,0,0,.342-.535,2.092,2.092,0,0,0,.118-.367v-.5a.893.893,0,0,1-.035-.1Z" transform="translate(-378.609 -0.001)" fill="#fff"/>
      <path id="Path_684" data-name="Path 684" d="M13.275,91.03a.665.665,0,0,0-1.263.3V96.58a.674.674,0,0,1-.745.745c-3.06,0-6.12-.005-9.18.006a.722.722,0,0,1-.752-.758q.017-4.582,0-9.165a.726.726,0,0,1,.771-.76c1.72.012,3.44.005,5.161,0a.972.972,0,0,0,.232-.018A.666.666,0,0,0,8,85.893a.677.677,0,0,0-.7-.579c-1.767,0-3.534,0-5.3,0a2,2,0,0,0-2,2.017v9.321a1.886,1.886,0,0,0,.32,1.093,1.849,1.849,0,0,0,1.6.893c1.579-.008,3.159,0,4.739,0H11.57a.962.962,0,0,0,.217-.017,2,2,0,0,0,1.563-1.941q.01-2.658,0-5.317a.838.838,0,0,0-.075-.331Z" transform="translate(0.002 -82.638)" fill="#fff"/>
      <path id="Path_685" data-name="Path 685" d="M187.424,68.2q-2.536,2.539-5.075,5.073a.714.714,0,0,0-.207.39q-.206,1.064-.422,2.126c-.075.37.105.554.47.48.662-.134,1.324-.269,1.988-.391a1.131,1.131,0,0,0,.631-.33q2.473-2.491,4.961-4.966a.917.917,0,0,1,.14-.1l-2.4-2.4a1.11,1.11,0,0,1-.092.116Z" transform="translate(-176.008 -65.946)" fill="#fff"/>
    </g>
  </g>
</svg>
