<svg xmlns="http://www.w3.org/2000/svg" width="16" height="16" viewBox="0 0 16 16">
  <g id="ramsu-icon" transform="translate(0.005)">
    <g id="Layer_1" data-name="Layer 1" transform="translate(-0.005)">
      <path id="Path_639" data-name="Path 639" d="M16.342,14.427a3.756,3.756,0,0,0-.4.015,3.557,3.557,0,0,0-1.248.417,1.982,1.982,0,0,1-1.708.021,3.73,3.73,0,0,0-1.511-.452c0-.045-.005-.075-.005-.106V9.108a.454.454,0,0,1,.051-.191c.209-.429.43-.853.634-1.285a.934.934,0,0,0,.089-.37c.009-.551-.012-1.1.009-1.654.015-.4-.2-.646-.592-.614-.008,0-.017-.009-.03-.016V3.131c.286-.055.445-.209.459-.44a.456.456,0,0,0-.334-.483.718.718,0,0,0-.246-.019.352.352,0,0,1-.289-.115Q10.247,1.159,9.267.253C9.165.159,9.046.083,8.936,0h-.25a2.121,2.121,0,0,0-.238.167c-.647.6-1.294,1.2-1.929,1.8a.657.657,0,0,1-.53.223.448.448,0,0,0-.459.482c.008.236.149.379.459.466v1.85c-.5-.018-.633.259-.619.646.02.546,0,1.093.009,1.639a.843.843,0,0,0,.083.341c.206.431.426.855.634,1.284a.6.6,0,0,1,.059.25q.005,2.552,0,5.1v.167a3.035,3.035,0,0,0-1.3.355,2.422,2.422,0,0,1-.519.206,2.133,2.133,0,0,1-1.57-.206,2.83,2.83,0,0,0-1.455-.352.464.464,0,0,0-.465.448.455.455,0,0,0,.444.484,2.468,2.468,0,0,1,1.119.292,3.032,3.032,0,0,0,2.819,0,2.926,2.926,0,0,1,.562-.225,2.171,2.171,0,0,1,1.613.223,2.9,2.9,0,0,0,1.315.339,3.244,3.244,0,0,0,1.687-.423,1.877,1.877,0,0,1,.826-.2,2.4,2.4,0,0,1,1.195.3,2.965,2.965,0,0,0,2.69.038,2.9,2.9,0,0,1,1.248-.342.447.447,0,0,0,.414-.48A.459.459,0,0,0,16.342,14.427ZM8.811,1.112,9.95,2.174H7.674ZM6.947,3.132h3.736V4.983h-1.4V4.246a.469.469,0,1,0-.936,0v.731h-1.4ZM9.272,5.942V6.86H8.354V5.942Zm-2.949,0H7.4V6.86H6.323Zm4.195,8.565a12.914,12.914,0,0,1-1.233.482A1.927,1.927,0,0,1,7.9,14.848c-.262-.125-.529-.238-.806-.362v-.743H10.52Zm.269-6.248a1.935,1.935,0,0,0-.264,1.1c.02,1.084.007,2.173.007,3.26v.177H7.092V10.484c0-.51,0-1.019,0-1.529a.848.848,0,0,0-.076-.327c-.122-.268-.26-.529-.4-.81h4.4C10.935,7.966,10.872,8.12,10.787,8.258Zm.52-1.4h-1.08V5.941h1.08Z" transform="translate(-0.809)" fill="#fff"/>
      <path id="Path_640" data-name="Path 640" d="M289.549,49.52a.743.743,0,0,0,.4-.37V48.9c-.187-.334-.413-.427-.71-.279q-1.534.762-3.064,1.532a.582.582,0,0,0-.2.167.463.463,0,0,0,.215.709q1.482.744,2.966,1.484a.5.5,0,0,0,.793-.239v-.25a.749.749,0,0,0-.4-.37c-.656-.321-1.308-.649-1.962-.976-.049-.025-.1-.053-.167-.094.275-.138.526-.267.779-.392C288.648,49.966,289.1,49.74,289.549,49.52Z" transform="translate(-273.946 -46.528)" fill="#fff"/>
      <path id="Path_641" data-name="Path 641" d="M.273,52.067a.47.47,0,1,0,.407.848c.114-.051.223-.111.334-.167L3.76,51.378a.473.473,0,0,0,.3-.437.444.444,0,0,0-.26-.427Q2.24,49.731.675,48.958a.577.577,0,0,0-.346-.026A.429.429,0,0,0,0,49.323a.461.461,0,0,0,.275.482c.44.222.883.44,1.324.661l.931.467c-.083.042-.131.071-.182.1Z" transform="translate(0.005 -46.877)" fill="#fff"/>
      <path id="Path_642" data-name="Path 642" d="M180.969,210.517a.468.468,0,1,0-.459-.468A.468.468,0,0,0,180.969,210.517Z" transform="translate(-172.975 -200.84)" fill="#fff"/>
      <path id="Path_643" data-name="Path 643" d="M180.964,255.455a.464.464,0,1,0-.334-.139A.468.468,0,0,0,180.964,255.455Z" transform="translate(-172.963 -243.904)" fill="#fff"/>
    </g>
  </g>
</svg>
