<svg width="32" height="33" viewBox="0 0 32 33" fill="none" xmlns="http://www.w3.org/2000/svg">
<g clip-path="url(#clip0_2_7457)">
<path d="M28.9903 27.5968C28.9704 27.3692 28.9439 27.1422 28.9108 26.9161C28.9108 26.9158 28.7787 26.1824 28.7532 26.0705C28.4593 24.7812 27.6583 23.8358 26.5761 23.1024C26.3737 22.9653 26.1636 22.8463 25.9509 22.7345C25.6706 22.5871 21.4335 21.1948 21.3232 21.1602C21.3493 21.305 21.3671 21.4653 21.373 21.6393C21.9629 22.0536 23.702 23.5489 22.9123 26.3469C22.9123 26.3469 21.6639 24.8587 20.3902 24.6675C19.1772 26.782 17.1122 29.4586 16 30.1612C14.8878 29.4586 12.8228 26.782 11.6098 24.6674C10.3361 24.8587 9.08775 26.3468 9.08775 26.3468C8.29806 23.5489 10.037 22.0536 10.627 21.6393C10.6329 21.4653 10.6507 21.305 10.6767 21.1602C10.5664 21.1948 6.32935 22.5872 6.04903 22.7344C5.8364 22.8463 5.62632 22.9652 5.42389 23.1024C4.3417 23.8357 3.54064 24.7811 3.2468 26.0704C3.22127 26.1825 3.08916 26.9159 3.08916 26.9161C3.05607 27.1423 3.0296 27.3692 3.0097 27.5968C3.00885 27.6063 2.96139 28.7908 2.96143 28.7976C2.96143 28.7976 2.97365 29.3526 2.98052 29.4851C3.01856 30.2213 3.173 30.906 3.71033 31.4765C4.39507 32.2032 5.2268 32.5008 6.20222 32.5002C9.46809 32.4987 12.7341 32.4983 16 32.4982C19.266 32.4983 22.5319 32.4987 25.7978 32.5002C26.7731 32.5008 27.6049 32.2032 28.2896 31.4765C28.8269 30.906 28.9814 30.2214 29.0194 29.4851C29.0263 29.3526 29.0385 28.7976 29.0385 28.7976C29.0386 28.7908 28.9912 27.6063 28.9903 27.5968Z" fill="#0070D2"/>
<path d="M8.31509 14.2804C8.41653 14.6469 8.48143 14.9917 8.47896 15.3191C8.47811 15.4281 8.46978 15.5353 8.45283 15.6407C8.36114 15.9505 7.70833 16.9947 7.6041 17.1701C8.75439 18.4103 10.2778 18.6979 11.7803 19.0145C12.2245 19.1081 12.6774 19.1643 13.1587 19.2265C13.3139 19.2547 13.4702 19.2838 13.6275 19.3137L12.8642 21.5451C12.8642 21.5451 12.8424 24.8011 15.9901 26.7824H16.0098C19.1574 24.801 19.1358 21.5451 19.1358 21.5451L18.3724 19.3138C18.5297 19.2838 18.686 19.2548 18.8412 19.2266C19.3226 19.1643 19.7754 19.1081 20.2196 19.0147C21.7222 18.698 23.2455 18.4103 24.3959 17.1703C24.2917 16.9947 23.6388 15.9505 23.5471 15.6407C23.5301 15.5354 23.5218 15.4282 23.521 15.3191C23.5185 14.9918 23.5834 14.6469 23.6848 14.2805C23.7812 13.9321 23.8922 13.5855 23.9981 13.2372C24.5067 12.1039 24.7899 10.8457 24.7899 9.52072C24.7899 4.59381 20.8738 0.59027 16.0097 0.500688V0.5C16.0064 0.50004 16.0032 0.500243 15.9998 0.500283C15.9965 0.500243 15.9933 0.500081 15.99 0.5V0.500607C11.126 0.590189 7.20996 4.59372 7.20996 9.52064C7.20996 10.8456 7.49315 12.1038 8.00176 13.2371C8.10765 13.5854 8.21871 13.932 8.31509 14.2804Z" fill="#0070D2"/>
</g>
<defs>
<clipPath id="clip0_2_7457">
<rect width="32" height="32" fill="white" transform="translate(0 0.5)"/>
</clipPath>
</defs>
</svg>
