<svg width="25" height="24" viewBox="0 0 25 24" fill="none" xmlns="http://www.w3.org/2000/svg">
<g clip-path="url(#clip0_2_7427)">
<path d="M22.2429 20.3226C22.2279 20.1519 22.2081 19.9817 22.1833 19.8121C22.1832 19.8119 22.0841 19.2618 22.065 19.1779C21.8446 18.2109 21.2438 17.5018 20.4322 16.9518C20.2804 16.849 20.1229 16.7597 19.9633 16.6759C19.7531 16.5653 16.5753 15.5211 16.4926 15.4951C16.5121 15.6038 16.5254 15.724 16.5298 15.8545C16.9723 16.1652 18.2766 17.2867 17.6843 19.3852C17.6843 19.3852 16.748 18.269 15.7928 18.1256C14.883 19.7115 13.3343 21.719 12.5001 22.2459C11.666 21.719 10.1172 19.7115 9.20745 18.1255C8.25218 18.269 7.31593 19.3851 7.31593 19.3851C6.72366 17.2867 8.02789 16.1652 8.4704 15.8545C8.4748 15.724 8.48815 15.6038 8.50767 15.4951C8.42494 15.5211 5.24713 16.5654 5.03689 16.6758C4.87742 16.7597 4.71986 16.8489 4.56804 16.9518C3.7564 17.5018 3.1556 18.2108 2.93522 19.1778C2.91608 19.2619 2.81699 19.8119 2.81699 19.8121C2.79217 19.9817 2.77233 20.1519 2.75739 20.3226C2.75676 20.3297 2.72116 21.2181 2.72119 21.2232C2.72119 21.2232 2.73036 21.6394 2.73551 21.7388C2.76404 22.291 2.87987 22.8045 3.28287 23.2324C3.79642 23.7774 4.42022 24.0006 5.15178 24.0002C7.60119 23.999 10.0507 23.9987 12.5001 23.9987C14.9496 23.9987 17.3991 23.999 19.8484 24.0002C20.58 24.0006 21.2038 23.7774 21.7174 23.2324C22.1203 22.8045 22.2362 22.291 22.2647 21.7388C22.2699 21.6394 22.279 21.2232 22.279 21.2232C22.2791 21.2181 22.2435 20.3297 22.2429 20.3226Z" fill="white"/>
<path d="M6.73657 10.3353C6.81264 10.6102 6.86132 10.8688 6.85947 11.1143C6.85883 11.1961 6.85258 11.2765 6.83986 11.3555C6.7711 11.5879 6.28149 12.371 6.20332 12.5026C7.06604 13.4327 8.20861 13.6485 9.33546 13.8859C9.66863 13.956 10.0083 13.9982 10.3693 14.0449C10.4857 14.0661 10.6029 14.0878 10.7209 14.1103L10.1484 15.7838C10.1484 15.7838 10.1321 18.2258 12.4928 19.7118H12.5076C14.8683 18.2257 14.8521 15.7838 14.8521 15.7838L14.2795 14.1103C14.3975 14.0879 14.5148 14.0661 14.6312 14.045C14.9922 13.9983 15.3318 13.9561 15.665 13.886C16.7919 13.6485 17.9344 13.4328 18.7971 12.5027C18.719 12.3711 18.2293 11.5879 18.1606 11.3555C18.1478 11.2765 18.1416 11.1962 18.141 11.1144C18.1391 10.8688 18.1878 10.6102 18.2638 10.3354C18.3362 10.0741 18.4194 9.81411 18.4988 9.55289C18.8802 8.70291 19.0926 7.75929 19.0926 6.76554C19.0926 3.07035 16.1556 0.0677027 12.5075 0.000515888V0C12.505 3.03464e-05 12.5026 0.000182078 12.5001 0.000212425C12.4976 0.000182078 12.4952 6.06927e-05 12.4928 0V0.000455195C8.84473 0.067642 5.90771 3.07029 5.90771 6.76548C5.90771 7.75917 6.12011 8.70282 6.50156 9.55282C6.58098 9.81404 6.66428 10.074 6.73657 10.3353Z" fill="white"/>
</g>
<defs>
<clipPath id="clip0_2_7427">
<rect width="24" height="24" fill="white" transform="translate(0.5)"/>
</clipPath>
</defs>
</svg>
